<svg width="262" height="132" viewBox="0 0 262 132" fill="none" xmlns="http://www.w3.org/2000/svg">
<path d="M155.473 8.46822C167.883 7.22722 180.224 4.61476 192.664 3.69332C199.95 3.69332 224.529 3.5071 230.796 6.98867C237.548 10.7398 243.504 16.1694 249.626 21.1789C257.222 27.3933 259.849 31.1409 259.849 41.4218C259.849 51.1218 257.643 58.2221 251.913 66.0361C249.614 69.1716 247.196 72.1905 245.389 75.6531C243.848 78.6082 243.753 81.8893 241.018 84.1269C237.256 87.2052 233.282 90.0925 229.585 93.206C224.153 97.7801 219.251 99.4595 215.664 105.917C212.914 110.867 218.725 126.966 214.79 130.464C214.116 131.062 196.636 117.844 194.95 116.677C176.785 104.101 143.744 96.6549 122.116 102.621C115.913 104.333 108.236 104.137 101.806 105.042C90.0274 106.701 78.9247 111.931 67.3057 114.323C51.2981 117.619 30.2891 118.724 17.4719 106.791C11.5806 101.306 5.95764 100.763 3.21441 92.5334C0.762118 85.1766 3.0131 72.2093 8.25832 66.4396C17.1534 56.655 26.7438 47.5293 37.6475 40.0095C50.0589 31.4499 63.8368 28.5529 77.8643 23.9362C102.119 15.9536 130.089 11.0067 155.473 8.46822Z" fill="#3365FF"/>
<path d="M218.69 2.41553C209.932 4.04491 201.462 3.04158 192.664 3.69332M192.664 3.69332C180.224 4.61476 167.883 7.22722 155.473 8.46822C130.089 11.0067 102.119 15.9536 77.8643 23.9362C63.8368 28.5529 50.0589 31.4499 37.6475 40.0095C26.7438 47.5293 17.1534 56.655 8.25832 66.4396C3.0131 72.2093 0.762118 85.1766 3.21441 92.5334C5.95764 100.763 11.5806 101.306 17.4719 106.791C30.2891 118.724 51.2981 117.619 67.3057 114.323C78.9247 111.931 90.0274 106.701 101.806 105.042C108.236 104.137 115.913 104.333 122.116 102.621C143.744 96.6549 176.785 104.101 194.95 116.677C196.636 117.844 214.116 131.062 214.79 130.464C218.725 126.966 212.914 110.867 215.664 105.917C219.251 99.4595 224.153 97.7801 229.585 93.206C233.282 90.0925 237.256 87.2052 241.018 84.1269C243.753 81.8893 243.848 78.6082 245.389 75.6531C247.196 72.1905 249.614 69.1716 251.913 66.0361C257.643 58.2221 259.849 51.1218 259.849 41.4218C259.849 31.1409 257.222 27.3933 249.626 21.1789C243.504 16.1694 237.548 10.7398 230.796 6.98867C224.529 3.5071 199.95 3.69332 192.664 3.69332Z" stroke="#3365FF" stroke-width="3" stroke-linecap="round"/>
<path d="M48.6882 70.5832L49.1442 73.436L54.9031 72.5154L54.447 69.6626L48.6882 70.5832ZM51.5664 63.6155L54.4432 81.612L57.9892 81.0452L55.1124 63.0487L51.5664 63.6155ZM42.2445 87.0619L42.6963 89.888L59.5463 87.1945L59.0946 84.3684L42.2445 87.0619ZM41.4561 82.1295L42.513 88.7415L46.059 88.1747L45.002 81.5627L41.4561 82.1295ZM40.671 68.6656L40.9182 70.212C41.4168 73.3314 40.1728 76.8387 36.3067 78.8239L38.5448 81.3644C43.0391 79.0328 44.5392 74.3908 43.7976 69.7517L43.5504 68.2053L40.671 68.6656ZM41.4175 68.5463L41.6647 70.0927C42.3679 74.4918 45.1305 78.261 49.9592 79.0477L51.249 75.9978C47.1475 75.3137 44.9777 72.5161 44.5175 69.6366L44.2703 68.0903L41.4175 68.5463ZM35.5405 67.8725L35.988 70.672L49.2654 68.5496L48.8179 65.7501L35.5405 67.8725ZM70.5193 70.1558L70.9753 73.0086L74.8945 72.3821L74.4385 69.5293L70.5193 70.1558ZM64.3864 68.5659L64.4887 69.2058C65.0939 72.9918 64.4886 77.2446 61.2975 79.8601L63.7233 82.2066C67.3069 79.3096 67.9774 73.9253 67.1549 68.7796L67.0526 68.1398L64.3864 68.5659ZM65.0796 68.4551L65.1819 69.095C65.9917 74.1607 68.2828 78.7435 72.6144 80.1838L74.1164 77.2641C70.3254 75.9561 68.4447 72.4014 67.8481 68.6688L67.7458 68.0289L65.0796 68.4551ZM60.1125 66.4602L60.5685 69.313L71.5797 67.5528L71.1237 64.7L60.1125 66.4602ZM63.4232 62.5404L64.3225 68.166L67.6819 67.629L66.7826 62.0034L63.4232 62.5404ZM76.8085 59.5532L80.755 84.2417L84.1144 83.7047L80.1679 59.0162L76.8085 59.5532ZM71.8867 60.7501L75.5903 83.9189L78.8964 83.3904L75.1928 60.2216L71.8867 60.7501ZM94.9861 65.862L95.4421 68.7147L99.8146 68.0158L99.3586 65.163L94.9861 65.862ZM86.8437 74.7922L87.2997 77.645L88.9794 77.3765C92.5253 76.8096 94.8897 76.377 97.5858 75.4539L96.8407 72.6746C94.2204 73.5583 91.9893 73.9696 88.5233 74.5237L86.8437 74.7922ZM84.653 61.0882L87.0099 75.832L90.3692 75.295L88.4599 63.3506L94.2721 62.4215L93.8246 59.6221L84.653 61.0882ZM88.1138 67.3433L88.5485 70.0628L94.3874 69.1294L93.9527 66.41L88.1138 67.3433ZM101.335 55.6326L105.282 80.3211L108.668 79.7799L104.721 55.0913L101.335 55.6326ZM96.3109 56.8732L100.014 80.042L103.32 79.5135L99.6169 56.3447L96.3109 56.8732ZM109.142 56.7634L111.759 73.1335L123.57 71.2455L120.953 54.8754L109.142 56.7634ZM117.904 58.2065L119.63 69.0044L114.804 69.7758L113.078 58.9779L117.904 58.2065ZM123.809 52.0401L127.755 76.7287L131.328 76.1576L127.381 51.469L123.809 52.0401ZM128.069 60.9017L128.538 63.8345L132.91 63.1356L132.441 60.2028L128.069 60.9017ZM142.248 68.5333L142.708 71.4128L165.05 67.8413L164.59 64.9618L142.248 68.5333ZM150.762 61.7584L151.717 67.7306L155.263 67.1638L154.308 61.1916L150.762 61.7584ZM141.815 50.775L143.869 63.6258L161.439 60.8172L159.385 47.9664L155.866 48.5289L156.471 52.3149L145.94 53.9983L145.334 50.2124L141.815 50.775ZM146.383 56.7711L156.914 55.0877L157.468 58.5537L146.937 60.2371L146.383 56.7711ZM180.83 42.8978L184.789 67.6664L188.335 67.0996L184.376 42.331L180.83 42.8978ZM178.387 52.4208L178.843 55.2735L183.429 54.5405L182.973 51.6877L178.387 52.4208ZM167.145 61.6278L167.614 64.5606L169.64 64.2367C173.746 63.5803 177.03 62.9186 180.585 61.7215L179.805 58.8932C176.33 60.0775 173.17 60.6646 169.171 61.3039L167.145 61.6278ZM164.85 47.6124L165.301 50.4385L172.927 49.2196L173.51 52.8722L165.939 54.0826L167.285 62.5076L170.805 61.9451L169.905 56.3195L177.451 55.1134L175.967 45.8352L164.85 47.6124ZM204.023 39.1903L207.97 63.8789L211.542 63.3078L207.596 38.6192L204.023 39.1903ZM208.171 48.2066L208.636 51.1127L212.982 50.418L212.517 47.5119L208.171 48.2066ZM197.954 42.7855L198.052 43.3987C199.121 50.0907 196.78 55.1133 190.838 59.5083L193.241 61.8857C200.793 56.4405 202.604 49.6433 201.42 42.2314L197.954 42.7855ZM189.769 44.0939L190.225 46.9467L200.223 45.3484L199.767 42.4957L189.769 44.0939ZM229.78 35.1003L233.727 59.7889L237.3 59.2178L233.353 34.5292L229.78 35.1003ZM222.911 38.8233L223.013 39.4632C224.07 46.0753 222.227 50.9635 215.68 55.5099L217.972 58.0419C226.066 52.4006 227.636 45.806 226.43 38.2608L222.911 38.8233ZM214.566 40.1573L215.013 42.9568L225.038 41.3543L224.591 38.5548L214.566 40.1573Z" fill="white"/>
</svg>
