<svg width="262" height="132" viewBox="0 0 262 132" fill="none" xmlns="http://www.w3.org/2000/svg">
<path d="M155.251 8.0527C167.661 6.81169 180.001 4.19924 192.441 3.27779C199.727 3.27779 224.306 3.09157 230.573 6.57315C237.325 10.3243 243.281 15.7538 249.404 20.7634C256.999 26.9778 259.626 30.7254 259.626 41.0063C259.626 50.7063 257.42 57.8066 251.69 65.6206C249.391 68.7561 246.973 71.775 245.167 75.2376C243.625 78.1926 243.53 81.4738 240.795 83.7114C237.033 86.7897 233.06 89.677 229.362 92.7904C223.931 97.3646 219.029 99.044 215.441 105.501C212.691 110.451 218.502 126.55 214.567 130.048C213.894 130.647 196.414 117.429 194.728 116.261C176.562 103.685 143.521 96.2394 121.893 102.206C115.69 103.917 108.013 103.721 101.583 104.627C89.8046 106.286 78.702 111.515 67.0829 113.908C51.0753 117.203 30.0663 118.309 17.2491 106.375C11.3578 100.89 5.73487 100.348 2.99163 92.1179C0.53934 84.761 2.79033 71.7938 8.03555 66.0241C16.9306 56.2395 26.521 47.1138 37.4247 39.594C49.8361 31.0344 63.614 28.1373 77.6415 23.5207C101.896 15.5381 129.866 10.5912 155.251 8.0527Z" fill="white"/>
<path d="M218.468 2C209.71 3.62938 201.239 2.62606 192.441 3.27779M192.441 3.27779C180.001 4.19924 167.661 6.81169 155.251 8.0527C129.866 10.5912 101.896 15.5381 77.6415 23.5207C63.614 28.1373 49.8361 31.0344 37.4247 39.594C26.521 47.1138 16.9306 56.2395 8.03555 66.0241C2.79033 71.7938 0.53934 84.761 2.99163 92.1179C5.73487 100.348 11.3578 100.89 17.2491 106.375C30.0663 118.309 51.0753 117.203 67.0829 113.908C78.702 111.515 89.8046 106.286 101.583 104.627C108.013 103.721 115.69 103.917 121.893 102.206C143.521 96.2394 176.562 103.685 194.728 116.261C196.414 117.429 213.894 130.647 214.567 130.048C218.502 126.55 212.691 110.451 215.441 105.501C219.029 99.044 223.931 97.3646 229.362 92.7904C233.06 89.677 237.033 86.7897 240.795 83.7114C243.53 81.4738 243.625 78.1926 245.167 75.2376C246.973 71.775 249.391 68.7561 251.69 65.6206C257.42 57.8066 259.626 50.7063 259.626 41.0063C259.626 30.7254 256.999 26.9778 249.404 20.7634C243.281 15.7538 237.325 10.3243 230.573 6.57315C224.306 3.09157 199.727 3.27779 192.441 3.27779Z" stroke="#3365FF" stroke-width="3" stroke-linecap="round"/>
<path d="M48.4654 70.1676L48.9214 73.0204L54.6803 72.0998L54.2243 69.247L48.4654 70.1676ZM51.3436 63.1999L54.2204 81.1965L57.7664 80.6296L54.8896 62.6331L51.3436 63.1999ZM42.0217 86.6463L42.4735 89.4724L59.3236 86.7789L58.8718 83.9528L42.0217 86.6463ZM41.2333 81.7139L42.2902 88.326L45.8362 87.7592L44.7793 81.1471L41.2333 81.7139ZM40.4482 68.2501L40.6954 69.7964C41.194 72.9158 39.95 76.4232 36.0839 78.4083L38.322 80.9489C42.8163 78.6172 44.3164 73.9753 43.5748 69.3362L43.3276 67.7898L40.4482 68.2501ZM41.1947 68.1307L41.4419 69.6771C42.1451 74.0763 44.9077 77.8454 49.7364 78.6321L51.0262 75.5823C46.9248 74.8981 44.755 72.1005 44.2947 69.2211L44.0475 67.6747L41.1947 68.1307ZM35.3177 67.457L35.7652 70.2564L49.0426 68.134L48.5951 65.3345L35.3177 67.457ZM70.2965 69.7403L70.7525 72.593L74.6718 71.9665L74.2157 69.1138L70.2965 69.7403ZM64.1637 68.1504L64.2659 68.7903C64.8711 72.5762 64.2658 76.8291 61.0747 79.4446L63.5005 81.7911C67.0841 78.8941 67.7546 73.5097 66.9321 68.3641L66.8298 67.7242L64.1637 68.1504ZM64.8569 68.0396L64.9591 68.6795C65.7689 73.7451 68.06 78.3279 72.3917 79.7683L73.8936 76.8486C70.1026 75.5406 68.222 71.9859 67.6253 68.2533L67.523 67.6134L64.8569 68.0396ZM59.8897 66.0446L60.3457 68.8974L71.3569 67.1372L70.9009 64.2845L59.8897 66.0446ZM63.2005 62.1249L64.0997 67.7505L67.4591 67.2135L66.5598 61.5879L63.2005 62.1249ZM76.5857 59.1376L80.5322 83.8262L83.8916 83.2892L79.9451 58.6006L76.5857 59.1376ZM71.664 60.3345L75.3675 83.5034L78.6736 82.9749L74.97 59.806L71.664 60.3345ZM94.7633 65.4464L95.2194 68.2992L99.5919 67.6002L99.1358 64.7474L94.7633 65.4464ZM86.6209 74.3766L87.0769 77.2294L88.7566 76.9609C92.3026 76.3941 94.6669 75.9614 97.363 75.0383L96.618 72.2591C93.9976 73.1428 91.7666 73.5541 88.3006 74.1081L86.6209 74.3766ZM84.4303 60.6726L86.7871 75.4164L90.1464 74.8794L88.2371 62.9351L94.0493 62.006L93.6018 59.2065L84.4303 60.6726ZM87.891 66.9277L88.3257 69.6472L94.1646 68.7139L93.7299 65.9944L87.891 66.9277ZM101.112 55.217L105.059 79.9056L108.445 79.3643L104.498 54.6757L101.112 55.217ZM96.0881 56.4576L99.7917 79.6265L103.098 79.098L99.3941 55.9291L96.0881 56.4576ZM108.92 56.3478L111.536 72.718L123.347 70.83L120.731 54.4598L108.92 56.3478ZM117.681 57.7909L119.407 68.5888L114.581 69.3602L112.855 58.5623L117.681 57.7909ZM123.586 51.6246L127.532 76.3131L131.105 75.742L127.158 51.0535L123.586 51.6246ZM127.846 60.4862L128.315 63.419L132.687 62.72L132.219 59.7872L127.846 60.4862ZM142.025 68.1178L142.485 70.9972L164.828 67.4257L164.367 64.5463L142.025 68.1178ZM150.539 61.3429L151.494 67.315L155.04 66.7482L154.085 60.776L150.539 61.3429ZM141.592 50.3594L143.647 63.2103L161.217 60.4017L159.162 47.5508L155.643 48.1134L156.248 51.8993L145.717 53.5828L145.112 49.7968L141.592 50.3594ZM146.16 56.3556L156.691 54.6721L157.245 58.1381L146.714 59.8216L146.16 56.3556ZM180.607 42.4823L184.566 67.2508L188.112 66.684L184.153 41.9154L180.607 42.4823ZM178.165 52.0052L178.621 54.858L183.206 54.1249L182.75 51.2722L178.165 52.0052ZM166.922 61.2122L167.391 64.145L169.417 63.8211C173.523 63.1648 176.808 62.503 180.362 61.3059L179.582 58.4776C176.107 59.6619 172.947 60.2491 168.948 60.8883L166.922 61.2122ZM164.627 47.1968L165.079 50.0229L172.704 48.804L173.288 52.4567L165.716 53.667L167.063 62.0921L170.582 61.5295L169.683 55.9039L177.228 54.6978L175.745 45.4196L164.627 47.1968ZM203.8 38.7748L207.747 63.4633L211.32 62.8922L207.373 38.2037L203.8 38.7748ZM207.949 47.791L208.413 50.6971L212.759 50.0024L212.294 47.0963L207.949 47.791ZM197.731 42.3699L197.829 42.9831C198.899 49.6752 196.557 54.6977 190.615 59.0927L193.019 61.4702C200.57 56.025 202.382 49.2278 201.197 41.8159L197.731 42.3699ZM189.546 43.6783L190.002 46.5311L200 44.9329L199.544 42.0801L189.546 43.6783ZM229.558 34.6848L233.504 59.3733L237.077 58.8022L233.13 34.1137L229.558 34.6848ZM222.688 38.4078L222.79 39.0477C223.847 45.6597 222.004 50.548 215.457 55.0943L217.749 57.6264C225.843 51.985 227.414 45.3904 226.207 37.8452L222.688 38.4078ZM214.343 39.7418L214.791 42.5412L224.815 40.9387L224.368 38.1393L214.343 39.7418Z" fill="#3365FF"/>
</svg>
