<svg width="153" height="90" viewBox="0 0 153 90" fill="none" xmlns="http://www.w3.org/2000/svg">
<path d="M17.0703 86.7772C19.1169 82.5157 15.9447 70.2314 15.766 62.6484C11.5463 60.5385 5.72236 61.3487 3.26994 56.1714C-0.180996 48.8861 3.79342 41.1673 10.4666 37.46C13.1792 35.953 17.2663 33.4443 20.3457 33.2074C23.9742 32.9283 29.4464 31.5621 32.8417 30.1325C36.8091 28.462 41.7242 27.6733 45.9266 26.2724C48.1022 25.5472 50.549 24.5459 52.5672 23.4592C55.0141 22.1416 57.7067 21.734 60.0583 20.2534C63.9957 17.7743 69.1766 16.3958 73.6011 15.0849C76.9122 14.1038 81.2437 12.1996 84.6578 12.0099C88.3086 11.8071 91.3612 10.85 94.6678 9.19668C98.2848 7.38818 102.221 6.42861 105.855 4.81325C111.95 2.10435 117.986 2 124.698 2C130.051 2 136.069 5.50412 140.89 8.1826C146.929 11.5378 151.194 14.9749 151.194 22.2816C151.194 29.396 142.023 34.5375 137.979 39.6844C135.958 42.2565 129.219 45.651 125.875 46.1287C121.251 46.7894 116.965 49.5886 112.332 50.2505C102.527 51.6513 92.411 54.6291 82.8914 57.349C78.5939 58.5769 74.3524 59.0408 69.9374 59.6716C66.4098 60.1755 62.2112 61.4707 58.7498 61.4707C52.0814 61.4707 45.5528 65.0037 39.0243 65.0037C32.8205 65.0037 28.868 70.1551 24.8927 74.1304C22.4733 76.5498 18.9449 83.8061 17.0527 86.8457C16.9873 87.0958 16.9436 87.2219 16.9436 87.019C16.2168 88.1611 16.8297 87.198 17.2887 85.9389C17.327 85.8089 17.3652 85.6941 17.4016 85.6123C17.3657 85.7226 17.3278 85.8319 17.2887 85.9389C17.2106 86.2045 17.1324 86.5338 17.0703 86.7772Z" fill="white"/>
<path d="M16.9436 87.019C19.2426 83 15.9482 70.3803 15.766 62.6484C11.5463 60.5385 5.72236 61.3487 3.26994 56.1714C-0.180997 48.8861 3.79342 41.1673 10.4666 37.46C13.1792 35.953 17.2663 33.4443 20.3457 33.2074C23.9742 32.9283 29.4464 31.5621 32.8417 30.1325C36.8091 28.462 41.7242 27.6733 45.9266 26.2724C48.1022 25.5472 50.549 24.5459 52.5672 23.4592C55.0141 22.1416 57.7067 21.734 60.0583 20.2534C63.9957 17.7743 69.1766 16.3958 73.6011 15.0849C76.9122 14.1038 81.2437 12.1996 84.6578 12.0099C88.3086 11.8071 91.3612 10.85 94.6678 9.19668C98.2848 7.38818 102.221 6.42861 105.855 4.81325C111.95 2.10435 117.986 2 124.698 2C130.051 2 136.069 5.50412 140.89 8.1826C146.929 11.5378 151.194 14.9749 151.194 22.2816C151.194 29.396 142.023 34.5375 137.979 39.6844C135.958 42.2565 129.219 45.651 125.875 46.1287C121.251 46.7894 116.965 49.5886 112.332 50.2505C102.527 51.6513 92.411 54.6291 82.8914 57.349C78.5939 58.5769 74.3524 59.0408 69.9374 59.6716C66.4098 60.1755 62.2112 61.4707 58.7498 61.4707C52.0814 61.4707 45.5528 65.0037 39.0243 65.0037C32.8205 65.0037 28.868 70.1551 24.8927 74.1304C22.426 76.5971 18.8065 84.0915 16.9436 87.019ZM16.9436 87.019C16.9436 87.5121 17.2013 86.0629 17.4016 85.6123C16.9436 87.019 16.155 88.2582 16.9436 87.019Z" stroke="#3365FF" stroke-width="3" stroke-linecap="round"/>
<path d="M37.2413 43.8848L37.7144 45.7518L40.576 45.0266L40.1028 43.1596L37.2413 43.8848ZM32.3681 50.3006L32.8412 52.1676L33.9405 51.889C36.2611 51.3009 37.8052 50.8724 39.5402 50.0985L38.8795 48.2976C37.1924 49.0408 35.7356 49.4472 33.4673 50.022L32.3681 50.3006ZM30.0952 41.3321L32.5405 50.9811L34.739 50.4239L32.758 42.6071L36.5617 41.6431L36.0974 39.811L30.0952 41.3321ZM32.7666 45.2788L33.2177 47.0585L37.0389 46.0901L36.5878 44.3104L32.7666 45.2788ZM40.846 36.7135L44.9407 52.8707L47.1567 52.3091L43.062 36.1519L40.846 36.7135ZM37.5841 37.8373L41.4268 52.9999L43.5904 52.4516L39.7477 37.289L37.5841 37.8373ZM46.0975 36.9981L48.8125 47.7115L56.5422 45.7525L53.8271 35.0392L46.0975 36.9981ZM52.0013 37.4331L53.7921 44.4997L50.634 45.3001L48.8431 38.2335L52.0013 37.4331ZM55.5537 32.9862L59.6484 49.1434L61.9865 48.5508L57.8917 32.3936L55.5537 32.9862ZM58.9115 38.6158L59.398 40.5351L62.2595 39.8099L61.7731 37.8906L58.9115 38.6158ZM77.2934 27.4767L81.3881 43.6339L83.5866 43.0767L79.4919 26.9195L77.2934 27.4767ZM73.369 34.339L73.8465 36.2235L76.5161 35.5469L76.0386 33.6625L73.369 34.339ZM74.0969 28.5653L77.9395 43.7279L80.1031 43.1796L76.2605 28.017L74.0969 28.5653ZM69.1497 32.3444L69.5698 34.002C70.2684 36.7589 70.1824 39.8632 68.1853 41.9476L69.9971 43.3083C72.1551 41.053 72.2344 37.1891 71.3146 33.5598L70.8945 31.9022L69.1497 32.3444ZM69.6731 32.2118L70.0932 33.8694C70.9953 37.4289 72.7954 40.5751 75.745 41.443L76.677 39.4056C73.994 38.6372 72.5016 36.1187 71.8206 33.4316L71.4005 31.774L69.6731 32.2118ZM66.3108 31.9869L66.784 33.8539L73.9902 32.0276L73.517 30.1606L66.3108 31.9869ZM85.686 27.1138L85.9425 28.1258C86.4555 30.1498 85.8519 32.531 83.3685 34.0888L85.0279 35.5809C87.8643 33.8037 88.6182 30.6973 87.8444 27.6438L87.5879 26.6318L85.686 27.1138ZM86.1571 26.9944L86.4136 28.0064C87.1477 30.9028 89.2112 33.1838 92.4774 33.3959L93.2085 31.298C90.379 31.1238 88.78 29.4307 88.298 27.5288L88.0416 26.5168L86.1571 26.9944ZM82.2942 27.212L82.763 29.0615L91.4872 26.8506L91.0184 25.001L82.2942 27.212ZM92.0708 23.7316L94.5383 33.4678L96.8589 32.8797L94.3915 23.1435L92.0708 23.7316ZM94.7364 27.2155L95.2184 29.1174L98.0101 28.4099L97.5281 26.508L94.7364 27.2155ZM86.2527 36.3104L86.7258 38.1774L95.1883 36.0327L96.1655 39.8888L98.4862 39.3007L97.0358 33.5776L86.2527 36.3104ZM108.087 19.6726L112.182 35.8298L114.485 35.2461L110.39 19.0889L108.087 19.6726ZM111.463 25.5204L111.954 27.4572L114.816 26.732L114.325 24.7952L111.463 25.5204ZM98.2588 24.7074L98.7275 26.5569L108.132 24.1735L107.663 22.3239L98.2588 24.7074ZM103.686 26.2659C101.33 26.8628 99.9924 28.9103 100.563 31.1611C101.133 33.412 103.285 34.575 105.64 33.9781C107.996 33.3811 109.334 31.3336 108.764 29.0828C108.193 26.832 106.041 25.6689 103.686 26.2659ZM104.164 28.1503C105.263 27.8717 106.234 28.4056 106.548 29.6444C106.862 30.8832 106.262 31.815 105.163 32.0936C104.064 32.3722 103.093 31.8384 102.779 30.5995C102.465 29.3607 103.064 28.4289 104.164 28.1503ZM101.279 21.6766L101.995 24.5032L104.316 23.9151L103.599 21.0885L101.279 21.6766ZM124.906 15.4102L129.001 31.5674L131.339 30.9749L127.244 14.8177L124.906 15.4102ZM120.567 18.2924L120.673 18.7112C121.77 23.0384 120.838 26.3942 116.762 29.8039L118.435 31.3483C123.473 27.1192 124.122 22.6466 122.87 17.7087L120.567 18.2924ZM115.106 19.6765L115.57 21.5086L122.131 19.8459L121.666 18.0139L115.106 19.6765Z" fill="#3365FF"/>
</svg>
